<?xml version="1.0" standalone="no"?>
<!DOCTYPE svg PUBLIC "-//W3C//DTD SVG 20010904//EN"
 "http://www.w3.org/TR/2001/REC-SVG-20010904/DTD/svg10.dtd">
<svg version="1.0" xmlns="http://www.w3.org/2000/svg"
 width="700.000000pt" height="700.000000pt" viewBox="0 0 700.000000 700.000000"
 preserveAspectRatio="xMidYMid meet">
<metadata>
Created by potrace 1.14, written by Peter Selinger 2001-2017
</metadata>
<g transform="translate(0.000000,700.000000) scale(0.100000,-0.100000)"
fill="#000000" stroke="none">
<path d="M3278 6995 c-1 -1 -41 -5 -88 -9 -47 -4 -96 -8 -110 -11 -14 -2 -41
-6 -60 -9 -19 -2 -57 -8 -85 -12 -27 -3 -59 -8 -70 -11 -34 -7 -59 -12 -85
-17 -14 -2 -63 -14 -110 -26 -47 -12 -95 -24 -107 -26 -39 -7 -261 -84 -367
-126 -111 -44 -353 -161 -431 -208 -27 -17 -58 -33 -67 -36 -10 -4 -18 -10
-18 -15 0 -5 -5 -9 -10 -9 -9 0 -101 -60 -244 -160 -11 -8 -68 -52 -126 -99
-424 -342 -780 -803 -990 -1281 -23 -52 -46 -104 -51 -115 -59 -129 -157 -456
-193 -650 -32 -165 -37 -202 -53 -375 -16 -167 -9 -567 12 -717 10 -67 14 -99
20 -148 4 -27 10 -66 15 -85 5 -19 12 -48 14 -65 27 -149 109 -419 184 -605
39 -97 131 -288 178 -370 20 -36 45 -81 56 -100 11 -19 54 -86 95 -148 184
-278 435 -556 688 -760 39 -31 72 -59 75 -62 21 -23 354 -250 366 -250 2 0 23
-12 46 -26 41 -26 312 -164 322 -164 3 0 29 -11 58 -24 164 -74 517 -182 688
-211 14 -2 52 -9 85 -14 33 -6 78 -13 100 -15 22 -3 56 -7 75 -10 208 -26 655
-27 810 -2 14 3 48 7 75 11 504 63 1031 264 1484 567 80 53 271 200 330 252
75 67 320 315 372 376 243 286 454 635 589 975 29 72 109 299 110 310 0 3 0 6
1 8 0 1 2 9 4 17 2 8 17 71 34 140 17 69 36 152 41 185 5 33 12 71 15 85 3 14
7 49 11 78 3 29 7 63 9 75 19 94 26 519 12 672 -4 44 -10 105 -13 135 -39 414
-215 945 -444 1340 -51 89 -169 269 -187 288 -7 7 -13 17 -13 20 0 4 -10 18
-22 32 -13 14 -36 43 -52 65 -16 22 -37 48 -45 57 -9 9 -21 23 -26 30 -77 99
-281 305 -415 420 -449 385 -986 646 -1579 769 -53 11 -112 22 -131 24 -19 3
-46 7 -60 10 -13 2 -52 7 -86 11 -33 3 -74 8 -90 10 -33 5 -540 14 -546 9z"/>
</g>
</svg>
