<svg width="134" height="29" viewBox="0 0 134 29" fill="none" xmlns="http://www.w3.org/2000/svg">
<path d="M9.36 9.896C10.56 9.896 11.648 10.176 12.624 10.736C13.616 11.28 14.392 12.056 14.952 13.064C15.512 14.056 15.792 15.216 15.792 16.544C15.792 17.872 15.512 19.04 14.952 20.048C14.392 21.04 13.616 21.816 12.624 22.376C11.648 22.92 10.56 23.192 9.36 23.192C7.712 23.192 6.416 22.672 5.472 21.632V27.656H1.728V10.088H5.304V11.576C6.232 10.456 7.584 9.896 9.36 9.896ZM8.712 20.12C9.672 20.12 10.456 19.8 11.064 19.16C11.688 18.504 12 17.632 12 16.544C12 15.456 11.688 14.592 11.064 13.952C10.456 13.296 9.672 12.968 8.712 12.968C7.752 12.968 6.96 13.296 6.336 13.952C5.728 14.592 5.424 15.456 5.424 16.544C5.424 17.632 5.728 18.504 6.336 19.16C6.96 19.8 7.752 20.12 8.712 20.12ZM30.9463 16.592C30.9463 16.64 30.9223 16.976 30.8743 17.6H21.1063C21.2823 18.4 21.6983 19.032 22.3543 19.496C23.0103 19.96 23.8263 20.192 24.8023 20.192C25.4743 20.192 26.0663 20.096 26.5783 19.904C27.1063 19.696 27.5943 19.376 28.0423 18.944L30.0343 21.104C28.8183 22.496 27.0423 23.192 24.7063 23.192C23.2503 23.192 21.9623 22.912 20.8423 22.352C19.7223 21.776 18.8583 20.984 18.2503 19.976C17.6423 18.968 17.3383 17.824 17.3383 16.544C17.3383 15.28 17.6343 14.144 18.2263 13.136C18.8343 12.112 19.6583 11.32 20.6983 10.76C21.7543 10.184 22.9303 9.896 24.2263 9.896C25.4903 9.896 26.6343 10.168 27.6583 10.712C28.6823 11.256 29.4823 12.04 30.0583 13.064C30.6503 14.072 30.9463 15.248 30.9463 16.592ZM24.2503 12.728C23.4023 12.728 22.6903 12.968 22.1143 13.448C21.5383 13.928 21.1863 14.584 21.0583 15.416H27.4183C27.2903 14.6 26.9383 13.952 26.3623 13.472C25.7863 12.976 25.0823 12.728 24.2503 12.728ZM46.0869 16.592C46.0869 16.64 46.0629 16.976 46.0149 17.6H36.2469C36.4229 18.4 36.8389 19.032 37.4949 19.496C38.1509 19.96 38.9669 20.192 39.9429 20.192C40.6149 20.192 41.2069 20.096 41.7189 19.904C42.2469 19.696 42.7349 19.376 43.1829 18.944L45.1749 21.104C43.9589 22.496 42.1829 23.192 39.8469 23.192C38.3909 23.192 37.1029 22.912 35.9829 22.352C34.8629 21.776 33.9989 20.984 33.3909 19.976C32.7829 18.968 32.4789 17.824 32.4789 16.544C32.4789 15.28 32.7749 14.144 33.3669 13.136C33.9749 12.112 34.7989 11.32 35.8389 10.76C36.8949 10.184 38.0709 9.896 39.3669 9.896C40.6309 9.896 41.7749 10.168 42.7989 10.712C43.8229 11.256 44.6229 12.04 45.1989 13.064C45.7909 14.072 46.0869 15.248 46.0869 16.592ZM39.3909 12.728C38.5429 12.728 37.8309 12.968 37.2549 13.448C36.6789 13.928 36.3269 14.584 36.1989 15.416H42.5589C42.4309 14.6 42.0789 13.952 41.5029 13.472C40.9269 12.976 40.2229 12.728 39.3909 12.728ZM52.1556 11.792C52.6036 11.168 53.2036 10.696 53.9556 10.376C54.7236 10.056 55.6036 9.896 56.5956 9.896V13.352C56.1796 13.32 55.8996 13.304 55.7556 13.304C54.6836 13.304 53.8436 13.608 53.2356 14.216C52.6276 14.808 52.3236 15.704 52.3236 16.904V23H48.5796V10.088H52.1556V11.792ZM56.8125 23H68.8125V25.16H56.8125V23ZM83.1066 5.192V23H79.5306V21.512C78.6026 22.632 77.2586 23.192 75.4986 23.192C74.2826 23.192 73.1786 22.92 72.1866 22.376C71.2106 21.832 70.4426 21.056 69.8826 20.048C69.3226 19.04 69.0426 17.872 69.0426 16.544C69.0426 15.216 69.3226 14.048 69.8826 13.04C70.4426 12.032 71.2106 11.256 72.1866 10.712C73.1786 10.168 74.2826 9.896 75.4986 9.896C77.1466 9.896 78.4346 10.416 79.3626 11.456V5.192H83.1066ZM76.1466 20.12C77.0906 20.12 77.8746 19.8 78.4986 19.16C79.1226 18.504 79.4346 17.632 79.4346 16.544C79.4346 15.456 79.1226 14.592 78.4986 13.952C77.8746 13.296 77.0906 12.968 76.1466 12.968C75.1866 12.968 74.3946 13.296 73.7706 13.952C73.1466 14.592 72.8346 15.456 72.8346 16.544C72.8346 17.632 73.1466 18.504 73.7706 19.16C74.3946 19.8 75.1866 20.12 76.1466 20.12ZM90.1478 11.792C90.5958 11.168 91.1958 10.696 91.9478 10.376C92.7158 10.056 93.5958 9.896 94.5878 9.896V13.352C94.1718 13.32 93.8918 13.304 93.7478 13.304C92.6758 13.304 91.8358 13.608 91.2278 14.216C90.6198 14.808 90.3158 15.704 90.3158 16.904V23H86.5718V10.088H90.1478V11.792ZM102.841 23.192C101.481 23.192 100.257 22.912 99.1688 22.352C98.0968 21.776 97.2568 20.984 96.6488 19.976C96.0408 18.968 95.7368 17.824 95.7368 16.544C95.7368 15.264 96.0408 14.12 96.6488 13.112C97.2568 12.104 98.0968 11.32 99.1688 10.76C100.257 10.184 101.481 9.896 102.841 9.896C104.201 9.896 105.417 10.184 106.489 10.76C107.561 11.32 108.401 12.104 109.009 13.112C109.617 14.12 109.921 15.264 109.921 16.544C109.921 17.824 109.617 18.968 109.009 19.976C108.401 20.984 107.561 21.776 106.489 22.352C105.417 22.912 104.201 23.192 102.841 23.192ZM102.841 20.12C103.801 20.12 104.585 19.8 105.193 19.16C105.817 18.504 106.129 17.632 106.129 16.544C106.129 15.456 105.817 14.592 105.193 13.952C104.585 13.296 103.801 12.968 102.841 12.968C101.881 12.968 101.089 13.296 100.465 13.952C99.8408 14.592 99.5288 15.456 99.5288 16.544C99.5288 17.632 99.8408 18.504 100.465 19.16C101.089 19.8 101.881 20.12 102.841 20.12ZM120.055 9.896C121.255 9.896 122.343 10.176 123.319 10.736C124.311 11.28 125.087 12.056 125.647 13.064C126.207 14.056 126.487 15.216 126.487 16.544C126.487 17.872 126.207 19.04 125.647 20.048C125.087 21.04 124.311 21.816 123.319 22.376C122.343 22.92 121.255 23.192 120.055 23.192C118.407 23.192 117.111 22.672 116.167 21.632V27.656H112.423V10.088H115.999V11.576C116.927 10.456 118.279 9.896 120.055 9.896ZM119.407 20.12C120.367 20.12 121.151 19.8 121.759 19.16C122.383 18.504 122.695 17.632 122.695 16.544C122.695 15.456 122.383 14.592 121.759 13.952C121.151 13.296 120.367 12.968 119.407 12.968C118.447 12.968 117.655 13.296 117.031 13.952C116.423 14.592 116.119 15.456 116.119 16.544C116.119 17.632 116.423 18.504 117.031 19.16C117.655 19.8 118.447 20.12 119.407 20.12Z" fill="black"/>
<path d="M130.41 23.192C129.754 23.192 129.202 22.968 128.754 22.52C128.306 22.072 128.082 21.512 128.082 20.84C128.082 20.152 128.306 19.6 128.754 19.184C129.202 18.752 129.754 18.536 130.41 18.536C131.066 18.536 131.618 18.752 132.066 19.184C132.514 19.6 132.738 20.152 132.738 20.84C132.738 21.512 132.514 22.072 132.066 22.52C131.618 22.968 131.066 23.192 130.41 23.192Z" fill="#D12D2D"/>
</svg>
